<svg xmlns="http://www.w3.org/2000/svg" width="104" height="30" fill="none"><path fill="#fff" d="M53.016 22H50.28l-7.248-8.064V22H40.8V5.2h2.232v7.584L50.04 5.2h2.736l-7.416 8.16L53.016 22Zm3.86-9.984c.687-1.488 1.935-2.232 3.743-2.232v2.184c-1.024-.048-1.904.224-2.64.816-.736.592-1.104 1.544-1.104 2.856V22h-2.088V10h2.088v2.016Zm6.594 4.944c.208 1.072.696 1.904 1.464 2.496.784.592 1.744.888 2.88.888 1.584 0 2.736-.584 3.456-1.752l1.776 1.008c-1.168 1.808-2.928 2.712-5.28 2.712-1.904 0-3.456-.592-4.656-1.776-1.184-1.2-1.776-2.712-1.776-4.536 0-1.808.584-3.312 1.752-4.512 1.168-1.2 2.68-1.8 4.536-1.8 1.76 0 3.192.624 4.296 1.872 1.12 1.232 1.68 2.72 1.68 4.464 0 .304-.024.616-.072.936H63.47Zm4.152-5.304c-1.12 0-2.048.32-2.784.96-.736.624-1.192 1.464-1.368 2.52h8.016c-.176-1.136-.624-2-1.344-2.592-.72-.592-1.56-.888-2.52-.888Zm9.817 5.304c.208 1.072.696 1.904 1.464 2.496.784.592 1.744.888 2.88.888 1.584 0 2.736-.584 3.456-1.752l1.776 1.008c-1.168 1.808-2.928 2.712-5.28 2.712-1.904 0-3.456-.592-4.656-1.776-1.184-1.2-1.776-2.712-1.776-4.536 0-1.808.584-3.312 1.752-4.512 1.168-1.2 2.68-1.8 4.536-1.8 1.76 0 3.192.624 4.296 1.872 1.12 1.232 1.68 2.72 1.68 4.464 0 .304-.024.616-.072.936H77.439Zm4.152-5.304c-1.12 0-2.048.32-2.784.96-.736.624-1.192 1.464-1.368 2.52h8.016c-.176-1.136-.624-2-1.344-2.592-.72-.592-1.56-.888-2.52-.888ZM99.879 5.2h2.088V22h-2.088v-2.064c-1.04 1.584-2.552 2.376-4.536 2.376-1.68 0-3.112-.608-4.296-1.824-1.184-1.232-1.776-2.728-1.776-4.488 0-1.76.592-3.248 1.776-4.464 1.184-1.232 2.616-1.848 4.296-1.848 1.984 0 3.496.792 4.536 2.376V5.2Zm-4.272 15.096c1.216 0 2.232-.408 3.048-1.224.816-.832 1.224-1.856 1.224-3.072s-.408-2.232-1.224-3.048c-.816-.832-1.832-1.248-3.048-1.248-1.2 0-2.208.416-3.024 1.248-.816.816-1.224 1.832-1.224 3.048s.408 2.24 1.224 3.072c.816.816 1.824 1.224 3.024 1.224Z"/><rect width="30" height="30" fill="#fff" rx="6"/><path fill="#1E255E" d="M9.71 21.678a1 1 0 0 1-1-1V9.226a1 1 0 0 1 1-1h1.051a1 1 0 0 1 1 1v11.452a1 1 0 0 1-1 1H9.71Zm3.04-6.222a1 1 0 0 1-.011-.665l1.975-5.883a1 1 0 0 1 .948-.682h.903a1 1 0 0 1 .948 1.315l-1.746 5.254a1 1 0 0 0 .009.657l1.774 4.885a1 1 0 0 1-.94 1.341h-.863a1 1 0 0 1-.938-.653l-2.06-5.57ZM19.011 20.333c0-.577.282-1.006.845-1.288a1.81 1.81 0 0 1 .779-.173c.649 0 1.125.25 1.428.75.13.218.195.455.195.71 0 .59-.289 1.013-.866 1.27a1.761 1.761 0 0 1-.757.172c-.664 0-1.14-.256-1.429-.768a1.298 1.298 0 0 1-.195-.673Z"/></svg>